<svg xmlns="http://www.w3.org/2000/svg" x="0px" y="0px" viewBox="0 0 864 864" enable-background="new 0 0 864 864"><style>.ls0{fill:#231f20}</style><g><path class="ls0" d="M432,93.5l-18.5,27.9l0,0l-25.7,38.8l-70,105.6l-24.4,36.9l-56.7,85.5L212.2,425h44.2h262.3l36.9-36.8	l16.5-16.5l26.6-26.6L578,313.8l-7.4-11.1l-24.4-36.9l-70-105.6l-24.8-37.5l0,0L432,93.5z M502,265.8l24.4,36.9l25,37.7l-47.9,47.9	H432H280.9l56.7-85.5l24.4-36.9l47.9-72.2l22.1-33.4l22.1,33.4L502,265.8z"/><path class="ls0" d="M607.5 425L651.8 425 627.3 388.2 583.1 388.2z"/><path class="ls0" d="M456.4 478L432 441.2 407.6 478 432 514.9z"/><path class="ls0" d="M583.1 478L554.8 520.8 526.4 563.6 502 600.4 476.2 639.3 454.1 672.7 432 706 409.9 672.7 387.8 639.3 362 600.4 337.6 563.6 309.2 520.8 280.9 478 256.5 441.2 212.2 441.2 236.7 478 265 520.8 293.4 563.6 317.8 600.4 343.6 639.3 387.8 706 415.2 747.4 415.2 747.3 432 772.7 450.7 744.5 450.7 744.5 476.2 706 520.4 639.3 546.2 600.4 570.6 563.6 599 520.8 627.3 478 651.8 441.2 607.5 441.2z"/></g></svg>